<?xml version="1.0" standalone="no"?>
<!DOCTYPE svg PUBLIC "-//W3C//DTD SVG 20010904//EN"
 "http://www.w3.org/TR/2001/REC-SVG-20010904/DTD/svg10.dtd">
<svg version="1.0" xmlns="http://www.w3.org/2000/svg"
 width="800.000000pt" height="800.000000pt" viewBox="0 0 800.000000 800.000000"
 preserveAspectRatio="xMidYMid meet">

<g transform="translate(0.000000,800.000000) scale(0.100000,-0.100000)"
fill="#000000" stroke="none">
<path d="M3820 7989 c-966 -41 -1887 -437 -2584 -1110 -75 -72 -133 -136 -129
-142 3 -5 1 -7 -4 -4 -12 8 -99 -87 -224 -243 -84 -104 -194 -256 -194 -268 0
-3 -9 -16 -19 -27 -35 -39 -155 -247 -235 -405 -380 -753 -510 -1612 -370
-2455 119 -713 444 -1401 922 -1950 58 -66 110 -119 117 -117 6 1 9 -1 6 -6
-3 -5 50 -63 117 -128 920 -898 2217 -1293 3493 -1064 1341 242 2479 1171
2992 2445 211 526 306 1088 281 1666 -36 802 -304 1553 -788 2207 -104 140
-285 348 -301 344 -6 -1 -9 2 -6 7 3 5 -55 68 -130 140 -367 355 -803 637
-1279 829 -400 161 -860 263 -1254 277 -75 3 -161 7 -191 8 -30 2 -129 0 -220
-4z m520 -249 c456 -41 940 -179 1351 -385 49 -25 92 -45 95 -44 4 0 10 -3 13
-8 3 -5 44 -31 91 -58 476 -271 917 -687 1235 -1165 327 -491 516 -997 602
-1610 25 -180 25 -760 0 -940 -86 -613 -275 -1118 -602 -1610 -580 -872 -1485
-1456 -2515 -1624 -220 -36 -353 -46 -610 -46 -257 0 -390 10 -610 46 -1030
168 -1932 750 -2515 1624 -345 517 -560 1124 -614 1737 -14 156 -14 530 0 686
99 1124 717 2159 1659 2781 237 157 371 230 617 334 332 142 748 248 1103 281
136 12 565 13 700 1z"/>
<path d="M3690 7600 c0 -6 -33 -10 -80 -10 -47 0 -80 -4 -80 -10 0 -6 -30 -10
-70 -10 -40 0 -70 -4 -70 -10 0 -5 -22 -10 -50 -10 -27 0 -50 -4 -50 -10 0 -5
-18 -10 -40 -10 -22 0 -40 -4 -40 -10 0 -5 -22 -10 -50 -10 -27 0 -50 -4 -50
-10 0 -5 -13 -10 -30 -10 -16 0 -30 -4 -30 -10 0 -5 -18 -10 -41 -10 -24 0
-38 -4 -34 -10 4 -6 -8 -10 -29 -10 -20 0 -36 -4 -36 -10 0 -5 -13 -10 -30
-10 -16 0 -30 -4 -30 -10 0 -5 -13 -10 -30 -10 -16 0 -30 -4 -30 -10 0 -5 -9
-10 -21 -10 -11 0 -17 -4 -14 -10 4 -6 -8 -10 -29 -10 -20 0 -36 -4 -36 -10 0
-5 -13 -10 -30 -10 -16 0 -30 -4 -30 -10 0 -5 -9 -10 -20 -10 -11 0 -20 -4
-20 -10 0 -5 -9 -10 -20 -10 -11 0 -20 -4 -20 -10 0 -5 -9 -10 -20 -10 -11 0
-20 -4 -20 -10 0 -5 -9 -10 -20 -10 -11 0 -20 -4 -20 -10 0 -5 -9 -10 -20 -10
-11 0 -20 -4 -20 -10 0 -5 -9 -10 -20 -10 -11 0 -20 -4 -20 -10 0 -5 -9 -10
-20 -10 -11 0 -20 -4 -20 -10 0 -5 -9 -10 -20 -10 -11 0 -20 -4 -20 -10 0 -5
-9 -10 -20 -10 -11 0 -20 -4 -20 -10 0 -5 -9 -10 -20 -10 -11 0 -20 -4 -20
-10 0 -5 -8 -10 -18 -10 -10 0 -24 -9 -32 -20 -8 -11 -22 -20 -32 -20 -10 0
-18 -4 -18 -10 0 -5 -8 -10 -18 -10 -10 0 -24 -9 -32 -20 -8 -11 -21 -20 -30
-20 -9 0 -22 -9 -30 -20 -8 -11 -21 -20 -28 -20 -8 0 -27 -13 -42 -30 -15 -16
-33 -30 -40 -30 -7 0 -25 -13 -40 -30 -15 -16 -34 -30 -40 -30 -7 0 -26 -13
-42 -30 -15 -16 -33 -30 -39 -30 -5 0 -37 -27 -69 -60 -32 -33 -64 -60 -70
-60 -13 0 -300 -287 -300 -300 0 -6 -27 -38 -60 -70 -33 -32 -60 -64 -60 -69
0 -6 -13 -24 -30 -39 -16 -16 -30 -35 -30 -42 0 -6 -13 -25 -30 -40 -16 -15
-30 -33 -30 -40 0 -7 -13 -25 -30 -40 -16 -15 -30 -34 -30 -42 0 -7 -9 -20
-20 -28 -11 -8 -20 -21 -20 -30 0 -9 -9 -22 -20 -30 -11 -8 -20 -22 -20 -32 0
-10 -4 -18 -10 -18 -5 0 -10 -8 -10 -18 0 -10 -9 -24 -20 -32 -11 -8 -20 -22
-20 -32 0 -10 -4 -18 -10 -18 -5 0 -10 -9 -10 -20 0 -11 -4 -20 -10 -20 -5 0
-10 -9 -10 -20 0 -11 -4 -20 -10 -20 -5 0 -10 -9 -10 -20 0 -11 -4 -20 -10
-20 -5 0 -10 -9 -10 -20 0 -11 -4 -20 -10 -20 -5 0 -10 -9 -10 -20 0 -11 -4
-20 -10 -20 -5 0 -10 -9 -10 -20 0 -11 -4 -20 -10 -20 -5 0 -10 -9 -10 -20 0
-11 -4 -20 -10 -20 -5 0 -10 -9 -10 -20 0 -11 -5 -20 -11 -20 -7 0 -9 -10 -7
-24 4 -17 1 -23 -9 -19 -8 3 -13 -2 -13 -16 0 -12 -4 -21 -10 -21 -5 0 -10
-13 -10 -30 0 -16 -4 -30 -10 -30 -5 0 -10 -13 -10 -30 0 -16 -4 -30 -10 -30
-5 0 -10 -9 -10 -20 0 -11 -4 -20 -10 -20 -5 0 -10 -13 -10 -30 0 -16 -4 -30
-10 -30 -5 0 -10 -13 -10 -30 0 -16 -4 -30 -10 -30 -5 0 -10 -13 -10 -30 0
-16 -4 -30 -9 -30 -5 0 -9 -17 -9 -37 0 -21 -5 -39 -11 -41 -6 -2 -11 -17 -11
-33 0 -16 -4 -29 -10 -29 -5 0 -10 -18 -10 -40 0 -22 -4 -40 -10 -40 -5 0 -10
-22 -10 -50 0 -27 -4 -50 -10 -50 -5 0 -10 -22 -10 -50 0 -27 -4 -50 -10 -50
-6 0 -10 -30 -10 -70 0 -40 -4 -70 -10 -70 -6 0 -10 -37 -10 -90 0 -53 -4 -90
-10 -90 -6 0 -10 -100 -10 -280 0 -180 4 -280 10 -280 6 0 10 -40 10 -100 0
-60 4 -100 10 -100 6 0 10 -30 10 -70 0 -40 4 -70 10 -70 6 0 10 -22 10 -50 0
-27 5 -50 10 -50 6 0 10 -22 10 -50 0 -27 5 -50 10 -50 6 0 10 -18 10 -40 0
-22 5 -40 10 -40 6 0 10 -13 10 -30 0 -16 5 -30 10 -30 6 0 10 -18 10 -40 0
-22 5 -40 10 -40 6 0 10 -13 10 -30 0 -16 5 -30 10 -30 6 0 10 -13 10 -30 0
-16 5 -30 10 -30 6 0 10 -13 10 -30 0 -16 5 -30 10 -30 6 0 10 -9 10 -20 0
-11 5 -20 10 -20 6 0 10 -13 10 -30 0 -16 5 -30 10 -30 6 0 10 -13 10 -30 0
-16 5 -30 10 -30 6 0 10 -9 10 -21 0 -14 5 -19 13 -16 10 4 13 -2 9 -19 -2
-14 0 -24 7 -24 6 0 11 -9 11 -20 0 -11 5 -20 10 -20 6 0 10 -9 10 -20 0 -11
5 -20 10 -20 6 0 10 -9 10 -20 0 -11 5 -20 10 -20 6 0 10 -9 10 -20 0 -11 5
-20 10 -20 6 0 10 -9 10 -20 0 -11 5 -20 10 -20 6 0 10 -9 10 -20 0 -11 5 -20
10 -20 6 0 10 -9 10 -20 0 -11 5 -20 10 -20 6 0 10 -9 10 -20 0 -11 5 -20 10
-20 6 0 10 -8 10 -18 0 -10 9 -24 20 -32 11 -8 20 -22 20 -32 0 -10 5 -18 10
-18 6 0 10 -8 10 -18 0 -10 9 -24 20 -32 11 -8 20 -21 20 -30 0 -9 9 -22 20
-30 11 -8 20 -21 20 -28 0 -8 14 -27 30 -42 17 -15 30 -33 30 -40 0 -7 14 -25
30 -40 17 -15 30 -34 30 -40 0 -7 13 -26 30 -42 16 -15 30 -33 30 -39 0 -5 27
-37 60 -69 33 -32 60 -64 60 -70 0 -13 287 -300 300 -300 6 0 38 -27 70 -60
32 -33 64 -60 70 -60 7 0 25 -13 40 -30 15 -16 33 -30 40 -30 7 0 25 -13 40
-30 15 -16 33 -30 40 -30 7 0 25 -13 40 -30 15 -16 34 -30 42 -30 7 0 20 -9
28 -20 8 -11 21 -20 30 -20 9 0 22 -9 30 -20 8 -11 22 -20 32 -20 10 0 18 -4
18 -10 0 -5 8 -10 18 -10 10 0 24 -9 32 -20 8 -11 22 -20 32 -20 10 0 18 -4
18 -10 0 -5 12 -10 26 -10 14 0 23 -4 19 -10 -3 -5 3 -10 14 -10 12 0 21 -4
21 -10 0 -5 9 -10 20 -10 11 0 20 -4 20 -10 0 -5 9 -10 20 -10 11 0 20 -4 20
-10 0 -5 9 -10 20 -10 11 0 20 -4 20 -10 0 -5 9 -10 20 -10 11 0 20 -4 20 -10
0 -5 9 -10 20 -10 11 0 20 -4 20 -10 0 -5 9 -10 20 -10 11 0 20 -4 20 -10 0
-5 9 -10 20 -10 11 0 20 -4 20 -10 0 -5 9 -10 20 -10 11 0 20 -4 20 -10 0 -5
14 -10 30 -10 17 0 30 -4 30 -10 0 -5 16 -10 36 -10 21 0 33 -4 29 -10 -3 -5
3 -10 14 -10 12 0 21 -4 21 -10 0 -5 14 -10 30 -10 17 0 30 -4 30 -10 0 -5 14
-10 30 -10 17 0 30 -4 30 -10 0 -5 14 -10 30 -10 17 0 30 -4 30 -10 0 -5 18
-10 40 -10 22 0 40 -4 40 -10 0 -5 14 -10 30 -10 17 0 30 -4 30 -10 0 -5 18
-10 40 -10 22 0 40 -4 40 -10 0 -5 23 -10 50 -10 28 0 50 -4 50 -10 0 -5 23
-10 50 -10 28 0 50 -4 50 -10 0 -6 30 -10 70 -10 40 0 70 -4 70 -10 0 -6 30
-10 70 -10 40 0 70 -4 70 -10 0 -6 117 -10 330 -10 213 0 330 4 330 10 0 6 30
10 70 10 40 0 70 4 70 10 0 6 30 10 70 10 40 0 70 4 70 10 0 6 23 10 50 10 28
0 50 5 50 10 0 6 23 10 50 10 28 0 50 5 50 10 0 6 14 10 30 10 17 0 30 5 30
10 0 6 18 10 40 10 22 0 40 5 40 10 0 6 18 10 40 10 22 0 40 5 40 10 0 6 14
10 30 10 17 0 30 5 30 10 0 6 14 10 30 10 17 0 30 5 30 10 0 6 14 10 30 10 17
0 30 5 30 10 0 6 9 10 21 10 11 0 17 5 14 10 -4 6 8 10 29 10 20 0 36 5 36 10
0 6 9 10 20 10 11 0 20 5 20 10 0 6 14 10 30 10 17 0 30 5 30 10 0 6 9 10 20
10 11 0 20 5 20 10 0 6 9 10 20 10 11 0 20 5 20 10 0 6 9 10 20 10 11 0 20 5
20 10 0 6 9 10 20 10 11 0 20 5 20 10 0 6 9 10 20 10 11 0 20 5 20 10 0 6 9
10 20 10 11 0 20 5 20 10 0 6 9 10 20 10 11 0 20 5 20 10 0 6 9 10 20 10 11 0
20 5 20 10 0 6 9 10 20 10 11 0 20 5 20 10 0 6 8 10 18 10 10 0 24 9 32 20 8
11 22 20 32 20 10 0 18 5 18 10 0 6 8 10 18 10 10 0 24 9 32 20 8 11 21 20 30
20 9 0 22 9 30 20 8 11 21 20 28 20 8 0 27 14 42 30 15 17 33 30 40 30 7 0 25
14 40 30 15 17 34 30 40 30 7 0 26 14 42 30 15 17 33 30 39 30 5 0 37 27 69
60 32 33 64 60 70 60 13 0 300 287 300 300 0 6 27 38 60 70 33 32 60 64 60 70
0 7 14 25 30 40 17 15 30 33 30 40 0 7 14 25 30 40 17 15 30 33 30 40 0 7 14
25 30 40 17 15 30 34 30 42 0 7 9 20 20 28 11 8 20 22 20 32 0 10 5 18 10 18
6 0 10 8 10 18 0 10 9 24 20 32 11 8 20 21 20 30 0 9 9 22 20 30 11 8 20 22
20 32 0 10 5 18 10 18 6 0 10 9 10 20 0 11 5 20 10 20 6 0 10 9 10 20 0 11 5
20 10 20 6 0 10 9 10 20 0 11 5 20 10 20 6 0 10 9 10 20 0 11 5 20 10 20 6 0
10 9 10 20 0 11 5 20 10 20 6 0 10 9 10 20 0 11 5 20 10 20 6 0 10 9 10 20 0
11 5 20 10 20 6 0 10 9 10 20 0 11 5 20 10 20 6 0 10 9 10 20 0 11 5 20 10 20
6 0 10 14 10 30 0 17 5 30 10 30 6 0 10 9 10 20 0 11 5 20 10 20 6 0 10 14 10
30 0 17 5 30 10 30 6 0 10 9 10 20 0 11 5 20 10 20 6 0 10 14 10 30 0 17 5 30
10 30 6 0 10 14 10 30 0 17 5 30 10 30 6 0 10 14 10 30 0 17 5 30 10 30 6 0
10 18 10 40 0 22 5 40 10 40 6 0 10 14 10 30 0 17 5 30 10 30 6 0 10 18 10 40
0 22 5 40 10 40 6 0 10 23 10 50 0 28 5 50 10 50 6 0 10 23 10 50 0 28 5 50
10 50 6 0 10 30 10 70 0 40 4 70 10 70 6 0 10 33 10 80 0 47 4 80 10 80 6 0
10 110 10 310 0 200 -4 310 -10 310 -6 0 -10 37 -10 90 0 53 -4 90 -10 90 -6
0 -10 27 -10 60 0 33 -4 60 -10 60 -5 0 -10 23 -10 50 0 28 -4 50 -10 50 -5 0
-10 23 -10 50 0 28 -4 50 -10 50 -5 0 -10 18 -10 40 0 22 -4 40 -10 40 -5 0
-10 14 -10 30 0 17 -4 30 -10 30 -5 0 -10 18 -10 40 0 22 -4 40 -10 40 -5 0
-10 14 -10 30 0 17 -4 30 -10 30 -5 0 -10 14 -10 30 0 17 -4 30 -10 30 -5 0
-10 14 -10 30 0 17 -4 30 -10 30 -5 0 -10 9 -10 20 0 11 -4 20 -10 20 -5 0
-10 14 -10 30 0 17 -4 30 -10 30 -5 0 -10 9 -10 20 0 11 -4 20 -10 20 -5 0
-10 14 -10 30 0 17 -4 30 -10 30 -5 0 -10 9 -10 20 0 11 -4 20 -10 20 -5 0
-10 9 -10 20 0 11 -4 20 -10 20 -5 0 -10 9 -10 20 0 11 -4 20 -10 20 -5 0 -10
9 -10 20 0 11 -4 20 -10 20 -5 0 -10 9 -10 20 0 11 -4 20 -10 20 -5 0 -10 9
-10 20 0 11 -4 20 -10 20 -5 0 -10 9 -10 20 0 11 -4 20 -10 20 -5 0 -10 9 -10
20 0 11 -4 20 -10 20 -5 0 -10 9 -10 20 0 11 -4 20 -10 20 -5 0 -10 8 -10 18
0 10 -9 24 -20 32 -11 8 -20 21 -20 30 0 9 -9 22 -20 30 -11 8 -20 22 -20 32
0 10 -4 18 -10 18 -5 0 -10 8 -10 18 0 10 -9 24 -20 32 -11 8 -20 21 -20 28 0
8 -13 27 -30 42 -16 15 -30 33 -30 40 0 7 -13 25 -30 40 -16 15 -30 34 -30 40
0 7 -13 26 -30 42 -16 15 -30 33 -30 39 0 5 -27 37 -60 69 -33 32 -60 64 -60
70 0 13 -287 300 -300 300 -6 0 -38 27 -70 60 -32 33 -64 60 -69 60 -6 0 -24
14 -39 30 -16 17 -35 30 -42 30 -6 0 -25 14 -40 30 -15 17 -33 30 -40 30 -7 0
-25 14 -40 30 -15 17 -34 30 -42 30 -7 0 -20 9 -28 20 -8 11 -21 20 -30 20 -9
0 -22 9 -30 20 -8 11 -22 20 -32 20 -10 0 -18 5 -18 10 0 6 -8 10 -18 10 -10
0 -24 9 -32 20 -8 11 -22 20 -32 20 -10 0 -18 5 -18 10 0 6 -12 10 -26 10 -14
0 -23 4 -19 10 3 6 -3 10 -14 10 -12 0 -21 5 -21 10 0 6 -9 10 -20 10 -11 0
-20 5 -20 10 0 6 -9 10 -20 10 -11 0 -20 5 -20 10 0 6 -9 10 -20 10 -11 0 -20
5 -20 10 0 6 -9 10 -20 10 -11 0 -20 5 -20 10 0 6 -9 10 -20 10 -11 0 -20 5
-20 10 0 6 -9 10 -20 10 -11 0 -20 5 -20 10 0 6 -9 10 -20 10 -11 0 -20 5 -20
10 0 6 -9 10 -20 10 -11 0 -20 5 -20 10 0 6 -13 10 -30 10 -16 0 -30 5 -30 10
0 6 -13 10 -30 10 -16 0 -30 5 -30 10 0 6 -9 10 -20 10 -11 0 -20 5 -20 10 0
6 -13 10 -30 10 -16 0 -30 5 -30 10 0 6 -13 10 -30 10 -16 0 -30 5 -30 10 0 6
-13 10 -30 10 -16 0 -30 5 -30 10 0 6 -18 10 -40 10 -22 0 -40 5 -40 10 0 6
-13 10 -30 10 -16 0 -30 5 -30 10 0 6 -22 10 -50 10 -27 0 -50 5 -50 10 0 6
-18 10 -40 10 -22 0 -40 5 -40 10 0 6 -22 10 -50 10 -27 0 -50 5 -50 10 0 6
-30 10 -70 10 -40 0 -70 4 -70 10 0 6 -33 10 -80 10 -47 0 -80 4 -80 10 0 6
-110 10 -310 10 -200 0 -310 -4 -310 -10z m51 -1070 c172 -55 290 -150 370
-296 49 -91 59 -136 75 -314 15 -178 17 -190 36 -190 7 0 60 41 118 91 144
124 163 133 280 134 84 0 101 -3 145 -27 63 -33 117 -89 144 -150 16 -36 21
-67 21 -133 0 -99 -23 -157 -87 -221 -39 -39 -128 -84 -168 -84 -55 0 -75 -18
-111 -97 -20 -43 -45 -97 -55 -121 -31 -68 -19 -75 115 -71 115 4 130 -1 99
-36 -10 -11 -43 -51 -73 -90 -30 -38 -60 -73 -66 -78 -7 -4 -30 -31 -51 -60
-20 -28 -41 -53 -45 -55 -5 -2 -8 -8 -8 -13 0 -5 -13 -21 -28 -36 -15 -16 -46
-50 -67 -78 -22 -27 -63 -77 -91 -110 -28 -33 -57 -70 -66 -83 -8 -12 -31 -39
-50 -60 -18 -20 -58 -68 -88 -107 -30 -38 -62 -78 -72 -88 -10 -10 -18 -22
-18 -27 0 -6 -11 -10 -25 -10 -14 0 -25 1 -25 3 0 2 88 180 196 396 120 240
193 396 187 402 -6 6 -61 1 -144 -11 -74 -11 -142 -20 -151 -20 -36 0 -32 9
113 318 62 133 97 119 -328 125 -338 4 -373 6 -424 25 -120 43 -173 76 -254
157 -85 85 -120 143 -156 261 -28 92 -28 247 1 341 59 192 203 340 393 405
107 36 259 39 358 8z"/>
</g>
</svg>
